<?xml version="1.0" encoding="iso-8859-1"?>
<!-- Generator: Adobe Illustrator 19.0.0, SVG Export Plug-In . SVG Version: 6.00 Build 0)  -->
<svg version="1.1" id="Layer_1" xmlns="http://www.w3.org/2000/svg" xmlns:xlink="http://www.w3.org/1999/xlink" x="0px" y="0px"
	 viewBox="0 0 512 512" style="enable-background:new 0 0 512 512;" xml:space="preserve">
<g>
	<g>
		<path style="fill:#FFD788;" d="M277.066,379.385c6.933-3.845,11.833-10.951,12.373-19.385l19.068-304.109
			C310.4,25.604,286.346,0,256,0s-54.4,25.604-52.507,55.891L222.561,360c0.54,8.435,5.44,15.541,12.373,19.385H277.066z"/>
	</g>
	<g>
		<path style="fill:#E6BE8A;" d="M255.781,0.012c-30.241,0.125-54.176,25.666-52.288,55.879L222.561,360
			c0.54,8.435,5.44,15.541,12.373,19.385h20.847V0.012z"/>
	</g>
	<g>
		<path style="fill:#868491;" d="M289.439,360l6.019-96h-78.916l6.019,96c0.54,8.435,5.44,15.541,12.373,19.385h42.132
			C283.999,375.54,288.899,368.434,289.439,360z"/>
	</g>
	<g>
		<path style="fill:#B4B6BC;" d="M255.781,379.385h21.285c6.933-3.845,11.833-10.951,12.373-19.385l6.019-96h-39.677V379.385z"/>
	</g>
	<g>
		<path style="fill:#996459;" d="M304,414.5c0,31.203-29.209,80.463-42.056,94.82c-3.188,3.563-8.714,3.575-11.916,0.025
			C237.165,495.081,208,446.069,208,414.5c0-26.51,21.49-48,48-48C282.51,366.5,304,387.99,304,414.5z"/>
	</g>
	<g>
		<path style="fill:#7E5C62;" d="M255.781,366.511C229.373,366.631,208,388.064,208,414.5c0,31.569,29.165,80.582,42.027,94.845
			c1.548,1.717,3.646,2.56,5.753,2.612L255.781,366.511L255.781,366.511z"/>
	</g>
	<g>
		<polygon style="fill:#868491;" points="293.452,296 294.455,280 217.545,280 218.548,296 		"/>
	</g>
	<g>
		<g>
			<polygon style="fill:#5C546A;" points="255.781,280 217.545,280 218.548,296 255.781,296 			"/>
		</g>
		<g>
			<polygon style="fill:#5C546A;" points="293.452,296 294.455,280 294.455,280 			"/>
		</g>
	</g>
</g>
<g>
</g>
<g>
</g>
<g>
</g>
<g>
</g>
<g>
</g>
<g>
</g>
<g>
</g>
<g>
</g>
<g>
</g>
<g>
</g>
<g>
</g>
<g>
</g>
<g>
</g>
<g>
</g>
<g>
</g>
</svg>
