<?xml version="1.0" encoding="iso-8859-1"?>
<!-- Generator: Adobe Illustrator 19.0.0, SVG Export Plug-In . SVG Version: 6.00 Build 0)  -->
<svg version="1.1" id="Layer_1" xmlns="http://www.w3.org/2000/svg" xmlns:xlink="http://www.w3.org/1999/xlink" x="0px" y="0px"
	 viewBox="0 0 512.096 512.096" style="enable-background:new 0 0 512.096 512.096;" xml:space="preserve">
<g>
	<g>
		<path style="fill:#E6BE94;" d="M296.158,0h-80c-4.418,0-8,3.582-8,8v376l44.282,125.466c1.238,3.507,6.198,3.507,7.435,0
			L304.158,384V8C304.158,3.582,300.576,0,296.158,0z"/>
	</g>
	<g>
		<path style="fill:#FFD788;" d="M255.939,280v232h0.544c1.431-0.119,2.82-0.909,3.393-2.534L304.158,384V280H255.939z"/>
	</g>
	<g>
		<path style="fill:#FFCD00;" d="M296.158,0h-80c-4.418,0-8,3.582-8,8v376c0-8.837,7.164-16,16-16s16,7.163,16,16
			c0-8.837,7.164-16,16-16s16,7.163,16,16c0-8.837,7.164-16,16-16s16,7.163,16,16V8C304.158,3.582,300.576,0,296.158,0z"/>
	</g>
	<g>
		<path style="fill:#FFCD00;" d="M240.158,384c0-8.837,7.164-16,16-16c8.092,0,14.711,6.028,15.781,13.826V0h-32v381.826
			C240.037,382.544,240.158,383.255,240.158,384z"/>
	</g>
	<g>
		<path style="fill:#FF9100;" d="M208.158,384c0-8.837,7.164-16,16-16c8.092,0,14.711,6.028,15.781,13.826V0h-24
			c-4.418,0-8,3.582-8,8v373.826C208.037,382.544,208.158,383.255,208.158,384z"/>
	</g>
	<g>
		<path style="fill:#FFE671;" d="M303.719,384c0-8.837-7.164-16-16-16c-8.092,0-14.711,6.028-15.781,13.826V0h24
			c4.418,0,8,3.582,8,8v373.826C303.84,382.544,303.719,383.255,303.719,384z"/>
	</g>
	<g>
		<path style="fill:#5C546A;" d="M233.57,456l18.871,53.466c1.238,3.507,6.198,3.507,7.436,0L278.746,456H233.57z"/>
	</g>
	<g>
		<path style="fill:#868491;" d="M255.939,512.031c1.624,0.091,3.288-0.724,3.937-2.565L278.746,456h-22.808L255.939,512.031
			L255.939,512.031z"/>
	</g>
</g>
<g>
</g>
<g>
</g>
<g>
</g>
<g>
</g>
<g>
</g>
<g>
</g>
<g>
</g>
<g>
</g>
<g>
</g>
<g>
</g>
<g>
</g>
<g>
</g>
<g>
</g>
<g>
</g>
<g>
</g>
</svg>
